{"title":"18+ Amityville Terror 2016 UNCENSORED Movies HDRip XviD New ☻rDX","uid":15529199,"size":739582854,"categoryP":"video","categoryS":"movies","magnet":"?xt=urn:btih:5160f959059dd15969c080d98817ae610030d5fb&amp;dn=18%2B+Amityville+Terror+2016+UNCENSORED+Movies+HDRip+XviD+New+%E2%98%BBrDX&amp;tr=udp%3A%2F%2Ftracker.leechers-paradise.org%3A6969&amp;tr=udp%3A%2F%2Fzer0day.ch%3A1337&amp;tr=udp%3A%2F%2Fopen.demonii.com%3A1337&amp;tr=udp%3A%2F%2Ftracker.coppersurfer.tk%3A6969&amp;tr=udp%3A%2F%2Fexodus.desync.com%3A6969","seeders":4,"leechers":1,"uploader":"basicssom","files":2,"time":1470809780,"description":"----------------------------------------------------------------\r\n18+ Amityville Terror 2016 UNCENSORED English Movies HDRip XviD AAC New Source with Sample ☻rDX☻\r\n\r\nSCREEN SHOTS &amp; POSTER:\r\n  \nhttp://postimage.co.nr/2016/8/transfer/index.htm  \nhttp://postimage.co.nr/2016/8/transfer/1.html  \nhttp://postimage.co.nr/2016/8/transfer/2.html  \nhttp://postimage.co.nr/2016/8/transfer/3.html  \nhttp://postimage.co.nr/2016/8/transfer/4.html  \nhttp://postimage.co.nr/2016/8/transfer/5.html  \nhttp://postimage.co.nr/2016/8/transfer/6.html  \nhttp://postimage.co.nr/2016/8/transfer/7.html  \nhttp://postimage.co.nr/2016/8/transfer/8.html  \nhttp://postimage.co.nr/2016/8/transfer/9.html  \nhttp://postimage.co.nr/2016/8/transfer/10.html\r\n\r\nFormat                                   : Matroska\r\nFormat version                           : Version 4 / Version 2\r\nFile size                                : 699 MiB\r\nDuration                                 : 1 h 24 min\r\nOverall bit rate mode                    : Constant\r\nOverall bit rate                         : 1 161 kb/s\r\nMovie name                               : 18+ Amityville Terror 2016 UNCENSORED English Movies HDRip XviD AAC New Source ☻rDX☻\r\n\r\nVideo\r\nID                                       : 2\r\nFormat                                   : AVC\r\nFormat/Info                              : Advanced Video Codec\r\nFormat profile                           :   \r\nFormat settings, CABAC                   : Yes\r\nFormat settings, ReFrames                : 2 frames\r\nFormat settings, GOP                     : M=1, N=12\r\nCodec ID                                 : V_MPEG4/ISO/AVC\r\nDuration                                 : 1 h 24 min\r\nBit rate mode                            : Constant\r\nBit rate                                 : 778 kb/s\r\nWidth                                    : 720 pixels\r\nHeight                                   : 400 pixels\r\nDisplay aspect ratio                     : 16:9\r\nFrame rate mode                          : Constant\r\nFrame rate                               : 23.976 FPS\r\nColor space                              : YUV\r\nChroma subsampling                       : 4:2:0\r\nBit depth                                : 8 bits\r\nScan type                                : Progressive\r\nBits/(Pixel*Frame)                       : 0.113\r\nStream size                              : 454 MiB (65%)\r\nTitle                                    : ☻rDX☻\r\nDefault                                  : Yes\r\nForced                                   : No\r\n\r\nAudio\r\nID                                       : 1\r\nFormat                                   : AC-3\r\nFormat/Info                              : Audio Coding 3\r\nMode extension                           : CM (complete main)\r\nFormat settings, Endianness              : Big\r\nCodec ID                                 : A_AC3\r\nDuration                                 : 1 h 24 min\r\nBit rate mode                            : Constant\r\nBit rate                                 : 384 kb/s\r\nChannel(s)                               : 6 channels\r\nChannel positions                        : Front: L C R, Side: L R, LFE\r\nSampling rate                            : 48.0 kHz\r\nFrame rate                               : 31.250 FPS (1536 spf)\r\nCompression mode                         : Lossy\r\nStream size                              : 231 MiB (33%)\r\nTitle                                    : ☻rDX☻\r\nDefault                                  : Yes\r\nForced                                   : No\r\n\r\nIMDB \nhttp://www.imdb.com/title/tt5312612/","torrent":{"xt":"urn:btih:5160f959059dd15969c080d98817ae610030d5fb","amp;dn":"18%2B+Amityville+Terror+2016+UNCENSORED+Movies+HDRip+XviD+New+%E2%98%BBrDX","amp;tr":["udp%3A%2F%2Ftracker.leechers-paradise.org%3A6969","udp%3A%2F%2Fzer0day.ch%3A1337","udp%3A%2F%2Fopen.demonii.com%3A1337","udp%3A%2F%2Ftracker.coppersurfer.tk%3A6969","udp%3A%2F%2Fexodus.desync.com%3A6969"],"infoHash":"5160f959059dd15969c080d98817ae610030d5fb","infoHashBuffer":{"type":"Buffer","data":[81,96,249,89,5,157,209,89,105,192,128,217,136,23,174,97,0,48,213,251]},"announce":[],"urlList":[]}}